Coordinates
version=1
nRows=17
nColumns=34
inDegrees=yes

Units are S.I. units (second, meters, Newtons, ...)
If the header above contains a line with 'inDegrees', this indicates whether rotational values are in degrees (yes) or radians (no).

endheader
time	pelvis_tilt	pelvis_list	pelvis_rotation	pelvis_tx	pelvis_ty	pelvis_tz	hip_flexion_r	hip_adduction_r	hip_rotation_r	knee_angle_r	ankle_angle_r	subtalar_angle_r	mtp_angle_r	hip_flexion_l	hip_adduction_l	hip_rotation_l	knee_angle_l	ankle_angle_l	subtalar_angle_l	mtp_angle_l	lumbar_extension	lumbar_bending	lumbar_rotation	arm_flex_r	arm_add_r	arm_rot_r	elbow_flex_r	pro_sup_r	arm_flex_l	arm_add_l	arm_rot_l	elbow_flex_l	pro_sup_l
     14.82500000	      2.60720771	     -0.35209564	   -177.29522492	      0.17620875	      1.01217425	      0.12820445	     19.63536065	     -1.82306611	      5.00164699	    121.07686518	     -1.60198362	    -14.91412074	      0.00000000	     26.02934012	      5.92103875	     -1.39918668	     43.18267009	     10.09665978	    -16.89826429	      0.00000000	    -15.62964790	     -4.91365102	     -3.14951879	     -5.73396742	    -20.64231465	      9.99524163	     87.97782846	     91.78200103	     -1.73103136	    -27.43303271	     -3.47684295	     93.83306941	     88.33961834
     14.83333330	      2.37502299	     -0.62442232	   -176.97661538	      0.18018539	      1.01152758	      0.12854447	     22.17051777	     -2.43075711	      5.39178757	    122.08136144	      0.11842960	    -12.52890624	      0.00000000	     24.59626387	      6.52015363	     -0.55283098	     44.28043472	     11.49251576	    -17.58333000	      0.00000000	    -16.76934184	     -5.32691376	     -5.03997016	     -6.37545244	    -20.16491201	      9.73999967	     86.88862031	     91.59941061	      1.35488083	    -27.89782021	     -2.40893296	     93.78205701	     88.11865051
     14.84166670	      2.26219901	     -1.00022599	   -176.87928653	      0.18320758	      1.01278003	      0.12914403	     25.02334016	     -3.15589328	      5.88695982	    122.38394180	      0.79470441	    -11.61991274	      0.00000000	     22.93270149	      7.10634261	     -0.00974732	     44.64107480	     11.92030099	    -18.65211317	      0.00000000	    -17.42578111	     -5.95903278	     -4.88417288	     -8.86969087	    -19.95237346	      8.12292457	     86.59428836	     90.75627062	      7.04567880	    -28.21439776	      2.31917462	     91.53559558	     87.10338650
     14.85000000	      2.12711765	     -1.07131461	   -176.66553064	      0.18568040	      1.01568659	      0.13022276	     27.84005929	     -3.65027927	      5.98937294	    121.80796684	      2.34302979	    -10.42181259	      0.00000000	     20.95585417	      7.28012166	      0.41157448	     44.55714783	     12.67664977	    -18.61523660	      0.00000000	    -18.44494138	     -6.08270282	     -6.52226039	    -10.07915396	    -19.64307968	      7.61819606	     86.44997775	     90.60172925	      9.54873949	    -28.13209454	      2.79268659	     91.95676889	     86.82582530
     14.85833330	      1.91086412	     -1.11924500	   -176.56368006	      0.18801036	      1.02011243	      0.13095151	     30.49009840	     -4.01176148	      5.98422259	    120.38054935	      3.10457181	    -10.38151958	      0.00000000	     18.55930833	      7.29096994	      0.55266916	     43.87308600	     12.89558484	    -18.42949421	      0.00000000	    -19.55485166	     -6.18242334	     -6.44978558	    -13.12869945	    -19.12489554	      5.19588741	     87.63755395	     90.07091712	     13.74987099	    -27.68322041	      5.85909399	     91.38497253	     85.87256878
     14.86666670	      2.19111587	     -0.82352826	   -176.42136389	      0.19044734	      1.02398778	      0.13180802	     33.50927292	     -3.99733609	      5.64509422	    118.27020938	      3.81802305	    -10.52677480	      0.00000000	     16.59131447	      6.92111111	      0.70427847	     43.06094463	     12.80425477	    -18.04796685	      0.00000000	    -19.74547293	     -5.93606829	     -7.86731256	    -14.40414236	    -19.17767411	      5.45632242	     87.42675450	     90.09148870	     15.26619543	    -27.28924814	      5.71009610	     92.29096521	     85.83199999
     14.87500000	      2.71085467	     -0.40925545	   -176.10165611	      0.19246208	      1.02755279	      0.13297121	     36.50234858	     -4.01135749	      4.91885840	    115.76302268	      4.23039680	    -11.01791284	      0.00000000	     14.82937626	      6.43432781	      0.94929012	     42.15377864	     13.08549204	    -17.09029831	      0.00000000	    -19.77521438	     -5.45588887	     -8.98823807	    -16.19647235	    -19.39223377	      5.08681822	     88.33219084	     90.10095426	     16.44180890	    -26.69172689	      5.92194748	     94.80130007	     85.80242665
     14.88333330	      3.22502299	     -0.04585753	   -175.99719333	      0.19326448	      1.03156217	      0.13335374	     39.25298855	     -3.91156629	      4.17778954	    113.04168050	      3.79981764	    -12.68959382	      0.00000000	     12.85944927	      5.76397060	      0.69926907	     40.77911849	     12.63530274	    -15.67334937	      0.00000000	    -19.60842620	     -4.93073071	     -9.94076957	    -18.41903952	    -19.26195076	      4.14227667	     89.97809236	     90.15091698	     17.07548121	    -26.35873543	      5.79184561	     97.52610398	     85.80415448
     14.89166670	      3.81550864	      0.26914639	   -175.83851829	      0.19321281	      1.03587840	      0.13347557	     41.68406353	     -3.91333912	      3.24448803	    109.98265570	      3.24989175	    -15.10120172	      0.00000000	     10.81930726	      5.18354825	      0.62650915	     39.14953977	     11.77271546	    -14.39271175	      0.00000000	    -18.93444605	     -4.61811115	    -10.75718532	    -20.53347860	    -19.34528496	      3.63397827	     91.27504754	     90.25345664	     17.75593612	    -25.53862347	      5.82492098	    100.42724459	     85.88082337
     14.90000000	      4.46256780	      0.54045521	   -175.81026421	      0.19248893	      1.04076446	      0.13269788	     43.76907197	     -3.83178902	      2.21309418	    106.43642262	      2.55683709	    -18.19305107	      0.00000000	      8.78905043	      4.49130687	      0.21814835	     37.35185373	     10.43938696	    -12.79518891	      0.00000000	    -18.05107526	     -4.32364132	    -11.49735359	    -22.76224630	    -19.23802238	      2.91515084	     92.89082958	     90.39206454	     18.08193105	    -24.93718509	      5.92895363	    103.46450185	     86.03141239
     14.90833330	      5.04183021	      0.68808261	   -175.80101012	      0.19104818	      1.04663104	      0.13083383	     45.37499124	     -3.73669310	      1.16408886	    102.35008494	      1.99730583	    -21.39012836	      0.00000000	      6.56586094	      3.79734172	     -0.39297740	     35.27856010	      8.66647998	    -10.86846487	      0.00000000	    -17.08413957	     -4.11832106	    -12.33419756	    -24.88083569	    -18.76194852	      1.96182033	     94.45263983	     90.70113508	     18.69905655	    -24.40274109	      6.16039816	    105.67629437	     86.30584073
     14.91666670	      5.68831066	      0.80020797	   -175.89860578	      0.18879117	      1.05292940	      0.12903048	     46.63211953	     -3.43012163	      0.27563907	     97.65907646	      1.55749164	    -24.36967600	      0.00000000	      4.39245652	      3.10991465	     -1.15039194	     33.11011399	      6.58107346	     -8.94089876	      0.00000000	    -15.73569527	     -4.01015317	    -12.38670279	    -27.44436326	    -17.81852149	      0.29494068	     95.37393959	     91.57425837	     22.51830598	    -22.81510404	      9.26761639	    103.82384977	     86.82785450
     14.92500000	      6.36744059	      0.75125906	   -175.80297476	      0.18609936	      1.05944288	      0.12747713	     47.53019953	     -3.33782499	     -0.57850391	     92.62612839	      1.35451403	    -26.41740507	      0.00000000	      2.48737303	      2.63179034	     -1.74711176	     31.11355629	      3.91871502	     -7.29365523	      0.00000000	    -14.33941528	     -4.15030584	    -12.97925382	    -29.61906553	    -17.12916131	     -0.43243268	     96.53422005	     92.18450010	     25.28227735	    -21.45143841	     11.35804797	    101.88429270	     86.78780617
     14.93333330	      6.92895160	      0.53961210	   -175.85874595	      0.18310360	      1.06608985	      0.12598945	     48.22237053	     -3.10849085	     -1.04092624	     87.30396181	      1.43350709	    -27.63994991	      0.00000000	      0.39659610	      2.34216653	     -2.52520073	     28.89939673	      0.77844688	     -5.68531104	      0.00000000	    -12.97266754	     -4.46311159	    -13.29605503	    -31.83629576	    -15.78569578	     -2.19177077	     97.61632543	     92.96471900	     27.44031897	    -20.56262479	     13.71515280	     99.95208935	     86.04175414
     14.94166670	      7.51740184	      0.22715505	   -175.64209408	      0.17926384	      1.07317223	      0.12544276	     48.67242926	     -3.15959857	     -1.54102154	     81.65780107	      1.27326717	    -27.64824733	      0.00000000	     -1.67139761	      2.28300237	     -2.86093936	     26.48858552	     -2.73105404	     -3.99862654	      0.00000000	    -11.48025224	     -4.97601830	    -14.18545242	    -33.27460846	    -15.09628878	     -1.97899156	     97.86075545	     93.01418156	     26.59243486	    -20.38020362	     14.19155913	    100.50440025	     86.00303841
     14.95000000	      7.90500647	     -0.34210148	   -176.00097056	      0.17524043	      1.08031268	      0.12436057	     48.79285377	     -2.78561651	     -1.21247747	     75.72141778	     -0.25762789	    -28.12760403	      0.00000000	     -4.03974665	      2.59664817	     -3.72378527	     23.94266150	     -6.91609103	     -3.21968719	      0.00000000	    -10.33728052	     -5.61251393	    -15.15469969	    -34.34078977	    -14.41809921	     -2.35397863	     98.31916402	     93.30667435	     25.04543692	    -20.63843265	     14.02872640	    101.98289969	     85.44611404
     14.95833330	      8.35401703	     -0.79884896	   -176.13864366	      0.17146046	      1.08766615	      0.12440524	     48.60495393	     -2.62805034	     -1.11938305	     69.32508211	     -1.49894122	    -27.17660608	      0.00000000	     -5.87907231	      2.85433814	     -4.31218091	     22.17180304	    -10.75529862	     -2.26067633	      0.00000000	     -9.07651127	     -6.05569460	    -16.18899601	    -35.04228285	    -14.14004064	     -2.33153520	     98.34708507	     93.42653890	     23.76756834	    -20.69821008	     14.33640231	    101.99105654	     85.22627496
